#!OML:ASF G:\JayActor3\Patient Classification 1\Patient 1\Session 5\male.ASF
:FULLY-SPECIFIED
:DEGREES
544
root 13.0416 14.3562 -4.96263 -107.092 -88.2982 120.809
lowerback 34.7848 -0.0236516 0.75285
upperback 6.74332 -0.735725 -1.54053
thorax -10.194 -0.669343 -1.69686
lowerneck -4.99548 0.159764 3.3802
upperneck -19.2697 -0.734918 -1.4944
head -4.99691 -0.845227 -0.984502
rclavicle -1.25234e-014 -2.41523e-014
rhumerus -20.3561 3.70758 -87.1126
rradius 46.9605
rwrist -10.2078
rhand -19.385 -8.09206
rfingers 7.12502
rthumb 6.9335 -37.9585
lclavicle -1.25234e-014 -2.41523e-014
lhumerus -21.7763 -1.52368 81.2446
lradius 47.686
lwrist 29.5311
lhand -17.8455 13.5438
lfingers 7.12502
lthumb 8.41943 43.356
rfemur -69.6158 -6.61874 20.5521
rtibia 105.012
rfoot -11.119 -4.82138
rtoes -4.99315
lfemur -60.723 -6.61619 -23.6427
ltibia 71.9916
lfoot -23.8043 11.8377
ltoes -4.32605
545
root 12.9155 14.3556 -4.95611 -107.142 -88.2558 120.801
lowerback 34.8214 -0.0475046 0.78342
upperback 6.75956 -0.75655 -1.53388
thorax -10.1904 -0.680488 -1.69763
lowerneck -4.99961 0.171389 3.39222
upperneck -19.2251 -0.722774 -1.53525
head -4.98202 -0.836425 -0.999707
rclavicle -1.68967e-015 -7.35503e-015
rhumerus -20.3093 3.82527 -87.1565
rradius 47.0459
rwrist -10.2517
rhand -19.3612 -8.11323
rfingers 7.12502
rthumb 6.9565 -37.9789
lclavicle -1.68967e-015 -7.35503e-015
lhumerus -21.8259 -1.63599 81.2546
lradius 47.8099
lwrist 29.5472
lhand -17.8689 13.4631
lfingers 7.12502
lthumb 8.39685 43.2762
rfemur -70.7634 -6.34634 20.6302
rtibia 104.185
rfoot -12.2953 -4.58386
rtoes -6.04305
lfemur -60.202 -6.79721 -23.7477
ltibia 72.2455
lfoot -24.3216 12.17
ltoes -4.68125
546
root 12.789 14.3554 -4.95023 -107.219 -88.2251 120.815
lowerback 34.855 -0.0738341 0.826722
upperback 6.7759 -0.775588 -1.52529
thorax -10.1856 -0.691057 -1.70382
lowerneck -4.99933 0.183742 3.41106
upperneck -19.1799 -0.708593 -1.5721
head -4.96767 -0.827184 -1.01485
rclavicle 1.78906e-014 2.18663e-014
rhumerus -20.2916 3.92436 -87.1967
rradius 47.1568
rwrist -10.3038
rhand -19.3553 -8.14355
rfingers 7.12502
rthumb 6.96223 -38.0091
lclavicle 1.78906e-014 2.18663e-014
lhumerus -21.8728 -1.75169 81.2757
lradius 47.9155
lwrist 29.5631
lhand -17.882 13.3534
lfingers 7.12502
lthumb 8.3842 43.167
rfemur -71.8465 -6.05938 20.6933
rtibia 103.197
rfoot -13.3375 -4.35217
rtoes -7.29183
lfemur -59.6658 -6.94634 -23.8524
ltibia 72.4859
lfoot -24.8333 12.4672
ltoes -5.04989
547
root 12.662 14.3564 -4.94528 -107.378 -88.2039 120.897
lowerback 34.8906 -0.0993005 0.874826
upperback 6.79375 -0.79161 -1.51347
thorax -10.1796 -0.700427 -1.71028
lowerneck -4.99104 0.196201 3.43384
upperneck -19.1345 -0.692863 -1.60418
head -4.95454 -0.817512 -1.02918
rclavicle 2.6339e-014 5.19822e-014
rhumerus -20.3017 4.00606 -87.2326
rradius 47.2864
rwrist -10.3598
rhand -19.3664 -8.17106
rfingers 7.12502
rthumb 6.95145 -38.0369
lclavicle 2.6339e-014 5.19822e-014
lhumerus -21.9153 -1.86608 81.3071
lradius 48
lwrist 29.5795
lhand -17.8925 13.2534
lfingers 7.12502
lthumb 8.37406 43.0674
rfemur -72.8424 -5.75953 20.739
rtibia 102.041
rfoot -14.2652 -4.14811
rtoes -8.55173
lfemur -59.0992 -7.05708 -23.9593
ltibia 72.7043
lfoot -25.3349 12.7296
ltoes -5.44214
548
root 12.5344 14.3595 -4.9415 -107.458 -88.1874 120.884
lowerback 34.9317 -0.123549 0.921048
upperback 6.81403 -0.806892 -1.4999
thorax -10.1729 -0.709551 -1.71409
lowerneck -4.98364 0.209816 3.45657
upperneck -19.0805 -0.673916 -1.62938
head -4.93849 -0.806311 -1.04144
rclavicle 4.27387e-015 -4.07509e-015
rhumerus -20.3359 4.0717 -87.2653
rradius 47.4251
rwrist -10.4196
rhand -19.3922 -8.18841
rfingers 7.12502
rthumb 6.92655 -38.0551
lclavicle 4.27387e-015 -4.07509e-015
lhumerus -21.9476 -1.97116 81.3438
lradius 48.0591
lwrist 29.5926
lhand -17.8792 13.1731
lfingers 7.12502
lthumb 8.38691 42.9865
rfemur -73.733 -5.45459 20.7595
rtibia 100.718
rfoot -15.0771 -4.01471
rtoes -9.69961
lfemur -58.492 -7.13165 -24.074
ltibia 72.8912
lfoot -25.8208 12.9581
ltoes -5.85516
549
root 12.4059 14.3653 -4.9391 -107.503 -88.1738 120.82
lowerback 34.9744 -0.144721 0.962382
upperback 6.83702 -0.820339 -1.48615
thorax -10.1636 -0.717839 -1.71578
lowerneck -4.9728 0.222845 3.47853
upperneck -19.0186 -0.653655 -1.64621
head -4.92053 -0.794476 -1.05099
rclavicle 7.55382e-015 3.8763e-015
rhumerus -20.3903 4.12386 -87.2968
rradius 47.5632
rwrist -10.4809
rhand -19.428 -8.20535
rfingers 7.12502
rthumb 6.89196 -38.0732
lclavicle 7.55382e-015 3.8763e-015
lhumerus -21.9699 -2.06863 81.3815
lradius 48.09
lwrist 29.6108
lhand -17.8492 13.1115
lfingers 7.12502
lthumb 8.41587 42.9238
rfemur -74.5097 -5.14259 20.7502
rtibia 99.2281
rfoot -15.8012 -3.971
rtoes -10.6457
lfemur -57.8382 -7.16856 -24.1978
ltibia 73.0387
lfoot -26.2967 13.158
ltoes -6.26878
550
root 12.277 14.374 -4.93788 -107.382 -88.1623 120.578
lowerback 35.0173 -0.1659 1.00175
upperback 6.86111 -0.834809 -1.47437
thorax -10.1532 -0.726575 -1.71811
lowerneck -4.97145 0.233357 3.49365
upperneck -18.9357 -0.633971 -1.64841
head -4.89454 -0.782699 -1.05482
rclavicle -9.64106e-015 -1.76918e-014
rhumerus -20.461 4.15972 -87.328
rradius 47.6933
rwrist -10.5345
rhand -19.4583 -8.21377
rfingers 7.12502
rthumb 6.86277 -38.0825
lclavicle -9.64106e-015 -1.76918e-014
lhumerus -21.987 -2.16253 81.4192
lradius 48.0995
lwrist 29.6381
lhand -17.8296 13.0817
lfingers 7.12502
lthumb 8.43481 42.8933
rfemur -75.1714 -4.82926 20.7067
rtibia 97.5737
rfoot -16.4447 -4.04011
rtoes -11.4121
lfemur -57.142 -7.17536 -24.3319
ltibia 73.1438
lfoot -26.7471 13.3437
ltoes -6.70145
551
root 12.1477 14.385 -4.93752 -107.121 -88.1466 120.197
lowerback 35.0438 -0.186475 1.03927
upperback 6.88703 -0.849659 -1.46818
thorax -10.1348 -0.735299 -1.72541
lowerneck -5.01063 0.242897 3.48358
upperneck -18.805 -0.611252 -1.62246
head -4.84698 -0.768374 -1.0458
rclavicle -4.57205e-015 1.68967e-015
rhumerus -20.5386 4.17852 -87.3593
rradius 47.8067
rwrist -10.5807
rhand -19.4907 -8.22241
rfingers 7.12502
rthumb 6.83147 -38.0922
lclavicle -4.57205e-015 1.68967e-015
lhumerus -21.994 -2.25499 81.457
lradius 48.0849
lwrist 29.661
lhand -17.8147 13.0678
lfingers 7.12502
lthumb 8.44915 42.8788
rfemur -75.731 -4.51566 20.6163
rtibia 95.7619
rfoot -17.0263 -4.19582
rtoes -11.9442
lfemur -56.4218 -7.15821 -24.4797
ltibia 73.2088
lfoot -27.1701 13.5227
ltoes -7.13561
552
root 12.0185 14.3981 -4.93791 -106.666 -88.1277 119.631
lowerback 35.0484 -0.208008 1.07798
upperback 6.91396 -0.865508 -1.46748
thorax -10.1073 -0.744247 -1.739
lowerneck -5.08817 0.249829 3.45718
upperneck -18.6338 -0.589944 -1.5798
head -4.78066 -0.753899 -1.02887
rclavicle 8.99501e-015 2.37548e-014
rhumerus -20.6175 4.18089 -87.3898
rradius 47.8988
rwrist -10.6178
rhand -19.5157 -8.23329
rfingers 7.12502
rthumb 6.80736 -38.1039
lclavicle 8.99501e-015 2.37548e-014
lhumerus -21.9943 -2.35066 81.4963
lradius 48.0566
lwrist 29.6841
lhand -17.8231 13.0769
lfingers 7.12502
lthumb 8.44109 42.8882
rfemur -76.194 -4.20353 20.4765
rtibia 93.801
rfoot -17.5591 -4.42584
rtoes -12.2702
lfemur -55.692 -7.12354 -24.6364
ltibia 73.2394
lfoot -27.5592 13.6982
ltoes -7.57985
